HIERARCHY
ROOT Hips
{
	OFFSET 0.000000 0.000000 0.000000 
	CHANNELS 6 Xposition Yposition Zposition Yrotation Zrotation Xrotation 
	JOINT Lumbar
	{
		OFFSET 0.000000 0.000000 0.000000 
		CHANNELS 3 Zrotation Xrotation Yrotation
		JOINT Neck
		{
			OFFSET 0.000000 0.445665 0.000000 
			CHANNELS 3 Zrotation Xrotation Yrotation
			End Site
			{
				OFFSET 0.000000 0.227535 0.000000 
			}
		}
		JOINT RightShoulder
		{
			OFFSET 0.019635 0.377685 0.194865 
			CHANNELS 3 Zrotation Xrotation Yrotation
			JOINT RightElbow
			{
				OFFSET 0.000000 -0.243375 0.000000 
				CHANNELS 2 Zrotation Yrotation
				JOINT RightWrist
				{
					OFFSET 0.000000 -0.264825 0.000000 
					CHANNELS 2 Zrotation Xrotation
					End Site
					{
						OFFSET 0.006600 -0.176220 0.000990 
					}
				}
			}
		}
		JOINT LeftShoulder
		{
			OFFSET 0.019635 0.377685 -0.194865 
			CHANNELS 3 Zrotation Xrotation Yrotation
			JOINT LeftElbow
			{
				OFFSET 0.000000 -0.243375 0.000000 
				CHANNELS 2 Zrotation Yrotation
				JOINT LeftWrist
				{
					OFFSET 0.000000 -0.264825 0.000000 
					CHANNELS 2 Zrotation Xrotation
					End Site
					{
						OFFSET 0.006600 -0.176220 -0.000990 
					}
				}
			}
		}
	}
	JOINT RightHip
	{
		OFFSET 0.052140 -0.069960 0.075570 
		CHANNELS 3 Zrotation Xrotation Yrotation
		JOINT RightKnee
		{
			OFFSET 0.000000 -0.402270 0.000000 
			CHANNELS 1 Zrotation
			JOINT RightAnkle
			{
				OFFSET 0.000000 -0.404085 0.000000 
				CHANNELS 3 Zrotation Xrotation Yrotation
				End Site
				{
					OFFSET 0.204105 -0.089430 0.008415 
				}
			}
		}
	}
	JOINT LeftHip
	{
		OFFSET 0.052140 -0.069960 -0.075570 
		CHANNELS 3 Zrotation Xrotation Yrotation
		JOINT LeftKnee
		{
			OFFSET 0.000000 -0.402270 0.000000 
			CHANNELS 1 Zrotation
			JOINT LeftAnkle
			{
				OFFSET 0.000000 -0.404085 0.000000 
				CHANNELS 3 Zrotation Xrotation Yrotation
				End Site
				{
					OFFSET 0.204105 -0.089430 -0.008415 
				}
			}
		}
	}
}
MOTION
Frames: 25
Frame Time: 0.02
0.00205 -0.00078 -0.00109 19.7262 -18.6175 -1.07228 46.72216 -0.88866 -7.71102 -15.81483 2.81682 -0.09322 -27.30138 -9.94598 2.88697 30.75885 56.5232 -2.4079 -5.16145 -28.99052 7.11378 0.94625 36.58461 -108.71503 17.06034 -1.4969 29.36979 -2.71239 0.50956 -20.35356 -7.85683 -5.54249 -3.67678 32.92741 1.93522 -7.76014 -24.48278 -7.33464 4.93706 3.30367
0.00169 -0.00095 -0.00095 19.67952 -18.58497 -1.05611 46.70151 -0.88344 -7.70382 -15.81701 2.82895 -0.09365 -26.94539 -9.09556 -0.44413 30.60616 64.54124 -0.3478 -3.86713 -28.95143 7.13011 0.91377 36.55016 -108.72821 17.07627 -1.49537 29.37399 -2.77507 0.22526 -20.37969 -7.82288 -5.52331 -3.66187 32.91456 2.09062 -7.00045 -24.49269 -7.28379 4.86139 3.2573
0.00133 -0.00112 -0.00081 19.63305 -18.55266 -1.03998 46.6808 -0.87821 -7.6966 -15.8192 2.84117 -0.09409 -26.58997 -8.24783 -3.76548 30.45307 72.53424 1.70576 -2.57677 -28.91229 7.14659 0.88113 36.51584 -108.74152 17.09236 -1.49383 29.37842 -2.83766 -0.05863 -20.40579 -7.78898 -5.50414 -3.647 32.90201 2.24562 -6.2427 -24.50262 -7.23308 4.7859 3.21105
0.00098 -0.00129 -0.00068 19.58653 -18.5202 -1.02386 46.66024 -0.87302 -7.68942 -15.82142 2.85327 -0.09453 -26.23504 -7.39998 -7.08661 30.30071 80.52792 3.75958 -1.28637 -28.87333 7.16289 0.84875 36.48147 -108.75469 17.10827 -1.4923 29.38257 -2.90017 -0.34217 -20.43184 -7.75511 -5.48501 -3.63213 32.88917 2.40055 -5.48532 -24.5125 -7.18237 4.71046 3.16483
0.00062 -0.00146 -0.00054 19.53978 -18.4876 -1.00769 46.63966 -0.8678 -7.68227 -15.82353 2.86526 -0.09496 -25.87961 -6.5496 -10.4167 30.14908 88.54565 5.81974 0.00777 -28.83441 7.179 0.81649 36.44704 -108.76767 17.12394 -1.49078 29.38658 -2.96274 -0.62579 -20.45789 -7.72125 -5.46588 -3.61726 32.87612 2.55585 -4.72609 -24.52234 -7.13155 4.63484 3.11849
0.00025 -0.00163 -0.0004 19.4939 -18.45595 -0.99165 46.61861 -0.86252 -7.67488 -15.8258 2.87796 -0.09541 -25.52415 -5.70758 -13.71914 29.99294 96.48562 7.85917 1.29001 -28.79476 7.1963 0.783 36.413 -108.78166 17.1409 -1.4892 29.39201 -3.02532 -0.91015 -20.48413 -7.68728 -5.44666 -3.60237 32.86474 2.71022 -3.97145 -24.53247 -7.08108 4.55964 3.07242
-9e-05 -0.0018 -0.00027 19.44634 -18.42213 -0.97538 46.59884 -0.85748 -7.66805 -15.82805 2.88917 -0.09582 -25.16953 -4.84926 -17.07495 29.84605 104.57572 9.93864 2.59523 -28.75683 7.21104 0.75233 36.37799 -108.79364 17.15527 -1.48775 29.39407 -3.08785 -1.19308 -20.50993 -7.6535 -5.42762 -3.58753 32.84951 2.86626 -3.20863 -24.54197 -7.02993 4.48371 3.02588
-0.00046 -0.00197 -0.00013 19.4003 -18.39083 -0.9593 46.57735 -0.85204 -7.66054 -15.82976 2.90186 -0.09629 -24.81342 -4.00672 -20.37907 29.69062 112.52296 11.98013 3.87845 -28.71693 7.2284 0.71851 36.34428 -108.80737 17.17196 -1.48617 29.40013 -3.15037 -1.47666 -20.53618 -7.61964 -5.40846 -3.57266 32.83872 3.0208 -2.45296 -24.55214 -6.97943 4.4084 2.97975
-0.00084 -0.00215 1e-05 19.35619 -18.36056 -0.94354 46.55588 -0.8468 -7.65285 -15.83301 2.91594 -0.09674 -24.45808 -3.18016 -23.63132 29.52455 120.31643 13.98023 5.13853 -28.67611 7.24799 0.68293 36.31053 -108.82369 17.19182 -1.48447 29.40762 -3.21315 -1.7639 -20.5628 -7.5853 -5.38895 -3.55765 32.8299 3.17347 -1.70721 -24.56279 -6.92962 4.334 2.9342
-0.0011 -0.00229 0.00011 19.30119 -18.31819 -0.92621 46.54065 -0.84247 -7.64817 -15.83404 2.9208 -0.09701 -24.10606 -2.25166 -27.21611 29.4191 129.05754 16.23364 6.54305 -28.64507 7.25184 0.66378 36.27213 -108.82647 17.19442 -1.48356 29.39649 -3.27522 -2.03872 -20.58676 -7.55258 -5.37083 -3.54313 32.79932 3.3368 -0.9079 -24.56964 -6.87551 4.25482 2.88552
-0.00165 -0.00251 0.00031 19.26904 -18.30529 -0.91199 46.50823 -0.83491 -7.63588 -15.83551 2.94585 -0.09787 -23.74217 -1.5447 -30.07719 29.18625 135.75853 17.94281 7.63554 -28.59054 7.29074 0.60597 36.24664 -108.85694 17.23282 -1.48095 29.43126 -3.33831 -2.33414 -20.61668 -7.51717 -5.35017 -3.52781 32.82131 3.47766 -0.21944 -24.58517 -6.8307 4.18545 2.84332
-0.00277 -0.00288 0.00072 19.30163 -18.34256 -0.90805 46.4598 -0.82904 -7.61293 -15.87217 3.02075 -0.09843 -23.38268 -1.39716 -31.12207 28.59614 137.1526 18.22675 7.92525 -28.49289 7.41168 0.47384 36.23079 -108.97054 17.37484 -1.47393 29.5406 -3.40877 -2.73511 -20.66119 -7.4681 -5.31915 -3.50804 32.93646 3.55563 0.14302 -24.62058 -6.80987 4.14564 2.82028
-0.00424 -0.00333 0.00125 19.35702 -18.41561 -0.90687 46.38756 -0.81782 -7.5806 -15.90238 3.11692 -0.09992 -23.00282 -1.48026 -31.41346 27.87974 136.4513 17.95298 7.89308 -28.36685 7.57037 0.29719 36.2322 -109.1101 17.55129 -1.46516 29.70671 -3.47981 -3.14923 -20.71267 -7.41735 -5.2861 -3.4878 33.11525 3.61095 0.39706 -24.66629 -6.79877 4.11529 2.80354
-0.00571 -0.00376 0.00175 19.40037 -18.49169 -0.90331 46.30683 -0.80239 -7.5457 -15.91414 3.20706 -0.10225 -22.61013 -1.49047 -31.93287 27.22584 136.50949 17.88812 7.97156 -28.24097 7.72111 0.1199 36.24315 -109.23381 17.7091 -1.45704 29.87893 -3.54709 -3.52335 -20.76126 -7.37162 -5.25635 -3.46933 33.29654 3.67787 0.71648 -24.70876 -6.78409 4.07878 2.78292
-0.00651 -0.00413 0.00211 19.44994 -18.48436 -0.90464 46.31071 -0.81566 -7.53899 -16.01863 3.28208 -0.09933 -22.31711 -1.3696 -32.91458 26.54921 137.34774 18.00439 8.19421 -28.17232 7.83332 0.02982 36.18268 -109.37688 17.88174 -1.44955 29.91178 -3.62748 -4.03477 -20.80595 -7.30845 -5.21704 -3.44461 33.33967 3.74057 0.97254 -24.74166 -6.76544 4.04974 2.76638
-0.00879 -0.00465 0.00281 19.49307 -18.6618 -0.8963 46.12876 -0.76705 -7.47212 -15.92533 3.39342 -0.10747 -21.80354 -1.57236 -32.77886 25.89115 136.10156 17.61848 8.04729 -27.97336 8.0344 -0.25143 36.27262 -109.48302 18.02901 -1.44033 30.25433 -3.68279 -4.27132 -20.86387 -7.28053 -5.19656 -3.43242 33.69271 3.80502 1.32879 -24.80133 -6.75792 4.00789 2.74315
-0.01484 -0.00546 0.00436 19.50272 -19.31815 -0.86212 45.47164 -0.55546 -7.23411 -15.3143 3.60225 -0.14683 -20.75399 -2.64705 -29.5397 25.30341 129.29329 15.91782 6.89955 -27.4582 8.47442 -1.05926 36.79442 -109.50001 18.11734 -1.42658 31.38788 -3.65054 -3.67583 -20.92958 -7.35649 -5.23379 -3.45829 34.82578 3.8951 2.04223 -24.89659 -6.77399 3.92368 2.69695
-0.0224 -0.00644 0.00625 19.50669 -20.16282 -0.81803 44.6212 -0.28024 -6.93672 -14.49967 3.84689 -0.19713 -19.46962 -4.03314 -25.24148 24.73934 120.5144 13.74063 5.40213 -26.80558 9.002 -2.05663 37.4629 -109.47243 18.17328 -1.4111 32.8409 -3.5963 -2.81554 -21.01512 -7.46689 -5.2891 -3.49618 36.27982 3.9855 2.85124 -25.02637 -6.80175 3.82698 2.64426
-0.02941 -0.0074 0.00803 19.52024 -20.9368 -0.77724 43.83967 -0.03021 -6.67203 -13.76038 4.07301 -0.24184 -18.24921 -5.25352 -21.55912 24.17432 112.85457 11.82742 4.10362 -26.19241 9.48776 -2.96029 38.05089 -109.45638 18.23384 -1.39662 34.18015 -3.56415 -2.12322 -21.10717 -7.55746 -5.33273 -3.52638 37.62623 4.06501 3.57975 -25.16222 -6.82742 3.73923 2.59658
-0.03584 -0.0081 0.00966 19.50618 -21.65161 -0.74087 43.14201 0.20302 -6.38512 -13.09249 4.30753 -0.28922 -17.21212 -6.58314 -17.27628 23.5702 104.20046 9.70533 2.62498 -25.67728 9.98366 -3.89544 38.69878 -109.49008 18.34659 -1.38151 35.38722 -3.48142 -1.23336 -21.12699 -7.66543 -5.39087 -3.56595 38.81311 4.18663 4.45661 -25.20143 -6.84016 3.63857 2.54078
-0.04383 -0.0094 0.01167 19.54654 -22.53087 -0.69388 42.21817 0.48783 -6.12769 -12.22877 4.53506 -0.33361 -15.73328 -7.75738 -14.01007 23.04635 97.1484 7.89887 1.44272 -24.92337 10.47839 -4.81198 39.25537 -109.39418 18.33199 -1.36692 36.94661 -3.49825 -0.68802 -21.31058 -7.7456 -5.42313 -3.58891 40.40808 4.22399 5.05404 -25.45646 -6.88207 3.56098 2.49983
-0.05581 -0.01215 0.01461 19.75069 -23.84511 -0.61133 40.76902 0.88573 -5.99015 -10.86435 4.71492 -0.36711 -13.131 -8.41504 -13.74885 22.81352 95.26372 7.20389 1.16351 -23.56335 10.95126 -5.60789 39.53293 -109.08391 18.06601 -1.35756 39.38675 -3.80078 -1.19267 -21.86903 -7.73823 -5.37927 -3.56264 43.0498 4.00191 4.80873 -26.24539 -7.00488 3.55664 2.50547
-0.0693 -0.01553 0.01792 20.00727 -25.31375 -0.51989 39.09062 1.33545 -5.87968 -9.31202 4.89013 -0.3972 -10.08624 -8.90661 -14.56194 22.64884 95.02705 6.82601 1.19475 -21.96429 11.41903 -6.38195 39.71125 -108.62269 17.65756 -1.34815 42.17409 -4.20365 -2.04716 -22.60644 -7.70193 -5.30874 -3.51929 46.09224 3.6998 4.28732 -27.26134 -7.15583 3.57488 2.52562
-0.08207 -0.01873 0.02108 20.23192 -26.69305 -0.4384 37.48159 1.77106 -5.74144 -7.85181 5.08008 -0.42886 -7.21715 -9.48037 -14.92805 22.40233 93.86745 6.22083 1.0882 -20.46189 11.88741 -7.1816 39.92975 -108.13987 17.25107 -1.33656 44.80965 -4.55656 -2.71874 -23.30779 -7.68064 -5.25062 -3.4841 48.95049 3.4524 3.92551 -28.20717 -7.29194 3.57824 2.53634
-0.09503 -0.02144 0.02419 20.49114 -28.15735 -0.33228 36.0075 2.17092 -5.66732 -6.35494 5.21764 -0.46088 -4.44238 -10.03648 -15.08515 22.36485 93.34773 5.93665 0.96224 -19.00502 12.36695 -7.92436 40.1764 -108.02464 17.10037 -1.33421 47.42555 -4.92552 -3.48055 -23.81333 -7.65347 -5.19208 -3.44779 51.8241 3.12898 3.42719 -29.01043 -7.43778 3.59986 2.55837
